<svg xmlns="http://www.w3.org/2000/svg" viewBox="0 0 1400 940">
  <rect width="1400" height="940" fill="#2c3c3a"/>
  
  <!-- ============================================ -->
  <!-- PURPLE CRESCENT - true crescent shape -->
  <!-- Inner edge follows circle, outer edge extends right -->
  <!-- ============================================ -->
  <path d="M 530 95 
           C 620 60, 760 70, 830 160
           C 900 250, 870 380, 790 430
           C 720 470, 640 440, 590 390
           C 540 340, 500 250, 500 180
           C 500 130, 510 105, 530 95 Z" 
        fill="#3a2065"/>
  
  <!-- ============================================ -->
  <!-- GREEN SWEPT BAND - curves DIAGONALLY upward from circle -->
  <!-- Emerges from ~5 o'clock on circle, sweeps up-right -->
  <!-- ============================================ -->
  <!-- Dark teal outer -->
  <path d="M 560 370 
           C 620 350, 700 310, 800 270
           C 900 230, 980 210, 1040 220
           C 1080 225, 1090 250, 1070 265
           C 1040 285, 960 290, 880 300
           C 780 320, 680 350, 600 380
           C 570 395, 550 390, 560 370 Z" 
        fill="#185850"/>
  <!-- Mid teal -->
  <path d="M 585 368 
           C 640 348, 720 312, 815 275
           C 910 240, 985 222, 1038 228
           C 1068 232, 1075 252, 1058 262
           C 1035 278, 960 285, 880 295
           C 790 312, 700 340, 625 365
           C 595 380, 575 378, 585 368 Z" 
        fill="#287868"/>
  <!-- Cream interior -->
  <path d="M 618 360 
           C 670 342, 745 310, 835 278
           C 925 248, 995 232, 1035 236
           C 1055 238, 1058 252, 1045 258
           C 1028 270, 960 278, 885 290
           C 800 308, 720 335, 658 355
           C 628 365, 610 365, 618 360 Z" 
        fill="#d8d0a8" opacity="0.8"/>
  <!-- Orange wavy line -->
  <path d="M 660 348 C 720 325, 780 340, 840 318 C 900 298, 950 310, 1000 295 C 1030 288, 1045 292, 1050 295" 
        stroke="#c07020" stroke-width="4" fill="none"/>
  
  <!-- ============================================ -->
  <!-- RED CIRCLE -->
  <!-- ============================================ -->
  <circle cx="500" cy="285" r="190" fill="#c01515"/>
  
  <!-- On-ring elements -->
  <!-- Purple/magenta blocks at ~11 o'clock -->
  <rect x="440" y="108" width="28" height="42" fill="#382888" transform="rotate(-8, 454, 129)"/>
  <rect x="470" y="112" width="18" height="30" fill="#c01858" transform="rotate(-5, 479, 127)"/>
  <rect x="462" y="152" width="12" height="12" fill="#c0a028"/>
  <!-- Green rect near top -->
  <rect x="510" y="100" width="10" height="5" fill="#288858"/>
  <!-- White triangle near top -->
  <polygon points="540,118 550,102 558,120" fill="#e0e0e0" opacity="0.5"/>
  
  <!-- Block at ~7 o'clock with blue/gold/pink -->
  <g transform="translate(352, 380) rotate(-28)">
    <rect x="0" y="0" width="26" height="34" fill="#2050a0"/>
    <rect x="5" y="5" width="16" height="12" fill="#c0a028"/>
    <circle cx="13" cy="25" r="6" fill="#c06060"/>
  </g>
  
  <!-- Red rect + pink circle at ~5 o'clock -->
  <rect x="600" y="375" width="30" height="24" fill="#c03838" transform="rotate(12, 615, 387)"/>
  <circle cx="620" cy="395" r="10" fill="#c07088"/>
  
  <!-- Teal grid at ~4 o'clock -->
  <g transform="translate(628, 335) rotate(18)">
    <rect x="0" y="0" width="30" height="30" fill="#1a6a62" rx="1"/>
    <line x1="0" y1="10" x2="30" y2="10" stroke="#0a4848" stroke-width="1.3"/>
    <line x1="0" y1="20" x2="30" y2="20" stroke="#0a4848" stroke-width="1.3"/>
    <line x1="10" y1="0" x2="10" y2="30" stroke="#0a4848" stroke-width="1.3"/>
    <line x1="20" y1="0" x2="20" y2="30" stroke="#0a4848" stroke-width="1.3"/>
  </g>
  
  <!-- Multicolored triangular form between 4-5 o'clock -->
  <g transform="translate(570, 355)">
    <polygon points="0,0 30,-25 35,15 12,20" fill="#2050a0"/>
    <polygon points="14,-8 30,-22 33,5" fill="#c070a0"/>
    <rect x="8" y="-20" width="14" height="10" fill="#c0a028"/>
  </g>
  
  <!-- Dark inner circle -->
  <circle cx="500" cy="285" r="118" fill="#0e1320"/>
  
  <!-- Yellow dot -->
  <circle cx="497" cy="272" r="12" fill="#c0a028"/>
  
  <!-- Triangles inside -->
  <polygon points="525,235 536,220 542,238" fill="#802040" opacity="0.5"/>
  <polygon points="542,255 550,246 554,258" fill="#e0e0e0" opacity="0.25"/>
  
  <!-- ============================================ -->
  <!-- UPPER-RIGHT: LARGE ANGULAR/CHECKERED CLUSTER -->
  <!-- This is a BIG fragmented mass of geometric shapes -->
  <!-- ============================================ -->
  
  <!-- Checkered diamond - BIGGER and more prominent -->
  <g transform="translate(810, 155) rotate(22)">
    <rect x="0" y="0" width="18" height="18" fill="#c85530"/>
    <rect x="18" y="0" width="18" height="18" fill="#e8e0c8"/>
    <rect x="36" y="0" width="18" height="18" fill="#2255c0"/>
    <rect x="54" y="0" width="18" height="18" fill="#c85530"/>
    <rect x="0" y="18" width="18" height="18" fill="#c0a028"/>
    <rect x="18" y="18" width="18" height="18" fill="#c85530"/>
    <rect x="36" y="18" width="18" height="18" fill="#e8e0c8"/>
    <rect x="54" y="18" width="18" height="18" fill="#2255c0"/>
    <rect x="0" y="36" width="18" height="18" fill="#2255c0"/>
    <rect x="18" y="36" width="18" height="18" fill="#c0a028"/>
    <rect x="36" y="36" width="18" height="18" fill="#c85530"/>
    <rect x="54" y="36" width="18" height="18" fill="#c070a0"/>
    <rect x="0" y="54" width="18" height="18" fill="#e8e0c8"/>
    <rect x="18" y="54" width="18" height="18" fill="#288858"/>
    <rect x="36" y="54" width="18" height="18" fill="#c0a028"/>
    <rect x="54" y="54" width="18" height="18" fill="#8a58a8"/>
  </g>
  
  <!-- Large angular fragments extending from checker -->
  <!-- Purple/blue angular shards -->
  <polygon points="940,160 970,130 985,170 960,185" fill="#5a2878"/>
  <polygon points="960,185 985,170 1010,195 990,210" fill="#6a3890"/>
  <polygon points="990,210 1010,195 1030,220 1015,235" fill="#8a58a8"/>
  <polygon points="940,140 960,120 975,148" fill="#4a2068"/>
  
  <!-- Pink/magenta pointed lancet -->
  <g transform="translate(1010, 120) rotate(40)">
    <polygon points="0,0 -15,55 0,95 15,55" fill="#c04568"/>
    <polygon points="0,0 -9,45 0,78 9,45" fill="#e0a0b8"/>
    <polygon points="0,0 -4,25 0,45 4,25" fill="#f0d0d8"/>
  </g>
  
  <!-- Lavender/purple triangular fragments -->
  <polygon points="905,215 922,198 928,220" fill="#a888c0" opacity="0.65"/>
  <polygon points="880,250 892,236 900,255" fill="#8a68a0" opacity="0.55"/>
  <polygon points="945,265 958,250 965,268" fill="#7858a0" opacity="0.5"/>
  <polygon points="860,195 875,180 878,200" fill="#c0a028" opacity="0.6"/>
  
  <!-- Yellow/gold angular shapes -->
  <polygon points="920,175 935,160 940,180" fill="#c0a028"/>
  <polygon points="950,230 965,218 970,235" fill="#c0a028" opacity="0.7"/>
  
  <!-- White rod/bar -->
  <line x1="975" y1="190" x2="1000" y2="180" stroke="#e0e0e0" stroke-width="4" stroke-linecap="round"/>
  
  <!-- Small yellow bird-like form (between band and cluster) -->
  <circle cx="770" cy="228" r="5" fill="#c0a028"/>
  
  <!-- ============================================ -->
  <!-- FAR UPPER RIGHT: grating arcs + blue/pink form -->
  <!-- ============================================ -->
  <g transform="translate(1060, 90)">
    <path d="M 0 18 C 10 5, 28 5, 38 18" stroke="#4a5a55" stroke-width="2.2" fill="none"/>
    <path d="M 2 24 C 12 11, 30 11, 40 24" stroke="#4a5a55" stroke-width="2" fill="none"/>
    <path d="M 4 30 C 14 17, 32 17, 42 30" stroke="#4a5a55" stroke-width="1.8" fill="none"/>
    <path d="M 6 36 C 16 23, 34 23, 44 36" stroke="#4a5a55" stroke-width="1.5" fill="none"/>
    <path d="M 8 42 C 18 29, 36 29, 46 42" stroke="#4a5a55" stroke-width="1.2" fill="none"/>
  </g>
  
  <!-- Blue/red element -->
  <circle cx="1135" cy="108" r="15" fill="#2a4888"/>
  <path d="M 1126 100 C 1132 85, 1148 92, 1142 106" fill="#c03355"/>
  <path d="M 1144 102 C 1152 96, 1158 102, 1154 110" fill="#e0e0e0"/>
  
  <!-- Green triangles -->
  <polygon points="780,108 788,92 796,110" fill="#288858" opacity="0.55"/>
  <polygon points="760,135 775,122 780,138" fill="none" stroke="#288858" stroke-width="1.5"/>
  
  <!-- Orange dot -->  
  <circle cx="758" cy="230" r="5" fill="#c06630"/>
  
  <!-- ============================================ -->
  <!-- RIGHT CREATURE - WIDE FISH/WHALE SHAPE -->
  <!-- NOT a narrow bean - a WIDE body that fills lower-right -->
  <!-- ============================================ -->
  <g transform="translate(1090, 210)">
    <!-- Curling neck/head - thin S-curve at top -->
    <path d="M -15 20 
             C -35 -15, -10 -50, 15 -40
             C 35 -32, 30 -10, 12 2" 
          stroke="#289888" stroke-width="14" fill="none" stroke-linecap="round"/>
    
    <!-- Spiral at tip -->
    <path d="M 15 -40 C 25 -55, 35 -48, 28 -38" 
          stroke="#289888" stroke-width="6" fill="none" stroke-linecap="round"/>
    
    <!-- Head blob -->
    <circle cx="-22" cy="25" r="10" fill="#289888"/>
    <!-- Eye/face -->
    <circle cx="-28" cy="20" r="5" fill="#b86090"/>
    <circle cx="-28" cy="20" r="2.5" fill="#185848"/>
    
    <!-- Pink/rose stripe bands near neck -->
    <path d="M 0 10 C 12 5, 28 12, 35 22" stroke="#b86090" stroke-width="4" fill="none"/>
    <path d="M -5 18 C 8 12, 24 18, 32 28" stroke="#e0a0b8" stroke-width="3" fill="none"/>
    
    <!-- MAIN BODY - WIDE flowing shape -->
    <!-- The body is like a large fish: narrow at top, VERY wide in middle/bottom -->
    <!-- Then it narrows into a tail area -->
    <path d="M 12 2
             C 55 20, 80 65, 75 120
             C 70 175, 45 230, 5 280
             C -35 330, -85 365, -135 370
             C -185 375, -225 350, -240 310
             C -255 270, -240 210, -200 165
             C -160 120, -110 80, -60 50
             C -30 35, -5 15, 12 2 Z" 
          fill="#289888"/>
    
    <!-- Cross-hatch pattern on upper body -->
    <g transform="translate(-30, 80) rotate(15)">
      <rect x="0" y="0" width="40" height="40" fill="none" stroke="#1a5a48" stroke-width="1.5"/>
      <line x1="0" y1="13.3" x2="40" y2="13.3" stroke="#1a5a48" stroke-width="1"/>
      <line x1="0" y1="26.7" x2="40" y2="26.7" stroke="#1a5a48" stroke-width="1"/>
      <line x1="13.3" y1="0" x2="13.3" y2="40" stroke="#1a5a48" stroke-width="1"/>
      <line x1="26.7" y1="0" x2="26.7" y2="40" stroke="#1a5a48" stroke-width="1"/>
    </g>
    
    <!-- PROMINENT blue circle -->
    <circle cx="-60" cy="160" r="30" fill="#1a3880"/>
    <circle cx="-60" cy="160" r="16" fill="#2858c0"/>
    
    <!-- Many circles/spots on body -->
    <circle cx="15" cy="55" r="10" fill="#e0d0b8"/>
    <circle cx="35" cy="95" r="7" fill="#c06630"/>
    <circle cx="10" cy="140" r="6" fill="#e0d0b8"/>
    <circle cx="-25" cy="110" r="8" fill="#c0a028"/>
    <circle cx="-90" cy="200" r="6" fill="#b86090"/>
    <circle cx="-120" cy="250" r="10" fill="#c06630"/>
    <circle cx="-75" cy="250" r="8" fill="#e0d0b8"/>
    <circle cx="-160" cy="260" r="7" fill="#e0d0b8"/>
    <circle cx="-180" cy="230" r="9" fill="#185848"/>
    <circle cx="-140" cy="290" r="8" fill="#2255c0"/>
    <circle cx="-50" cy="210" r="6" fill="#c0a028"/>
    <circle cx="0" cy="180" r="5" fill="#b86090"/>
    <circle cx="-30" cy="280" r="7" fill="#c06630"/>
    <circle cx="-100" cy="310" r="5" fill="#e0d0b8"/>
    <circle cx="25" cy="120" r="5" fill="#e0e0e0"/>
    <circle cx="-200" cy="200" r="8" fill="#c06630"/>
    
    <!-- Concentric circle cluster -->
    <circle cx="-150" cy="330" r="14" fill="#e0d0b8"/>
    <circle cx="-150" cy="330" r="8" fill="#c0a028"/>
    <circle cx="-150" cy="330" r="4" fill="#c06630"/>
    
    <!-- Green grid rectangle on body -->
    <g transform="translate(-110, 230)">
      <rect x="0" y="0" width="26" height="26" fill="#286828" opacity="0.65" rx="1"/>
      <line x1="0" y1="8.7" x2="26" y2="8.7" stroke="#1a4818" stroke-width="1"/>
      <line x1="0" y1="17.3" x2="26" y2="17.3" stroke="#1a4818" stroke-width="1"/>
      <line x1="8.7" y1="0" x2="8.7" y2="26" stroke="#1a4818" stroke-width="1"/>
      <line x1="17.3" y1="0" x2="17.3" y2="26" stroke="#1a4818" stroke-width="1"/>
    </g>
    
    <!-- Orange element -->
    <circle cx="-75" cy="280" r="6" fill="#c06630"/>
    
    <!-- Yellow crown/fin at bottom of body -->
    <path d="M -185 355 C -165 330, -145 340, -125 330 C -105 340, -85 330, -65 355 C -50 365, -30 360, -20 355" 
          fill="#c0a028" opacity="0.8"/>
    
    <!-- White scalloped waves emanating from right side -->
    <path d="M 55 130 C 63 120, 73 120, 81 130 C 89 120, 99 120, 107 130 C 115 120, 125 120, 133 130 C 141 120, 151 120, 159 130" 
          stroke="#e0e0e0" stroke-width="2" fill="none"/>
    <path d="M 58 138 C 66 128, 76 128, 84 138 C 92 128, 102 128, 110 138 C 118 128, 128 128, 136 138 C 144 128, 154 128, 162 138" 
          stroke="#e0e0e0" stroke-width="1.5" fill="none"/>
    <path d="M 62 146 C 70 136, 80 136, 88 146 C 96 136, 106 136, 114 146 C 122 136, 132 136, 140 146" 
          stroke="#e0e0e0" stroke-width="1.2" fill="none"/>
    
    <!-- Purple curving tail element at bottom -->
    <path d="M -240 315 C -260 340, -255 365, -235 380" 
          stroke="#8a58a8" stroke-width="5" fill="none" stroke-linecap="round"/>
    <path d="M -230 385 C -245 395, -250 410, -238 420" 
          stroke="#8a58a8" stroke-width="3" fill="none" stroke-linecap="round"/>
    
    <!-- Orange dot at neck -->
    <circle cx="5" cy="-10" r="4" fill="#c06630"/>
  </g>
  
  <!-- ============================================ -->
  <!-- LEFT BUTTERFLY CLUSTER -->
  <!-- ============================================ -->
  <g transform="translate(175, 235)">
    <!-- Large blue wing -->
    <ellipse cx="-35" cy="32" rx="65" ry="44" fill="#1a42a0" transform="rotate(-20, -35, 32)"/>
    <!-- Large teal bean -->
    <ellipse cx="20" cy="95" rx="60" ry="34" fill="#1a7878" transform="rotate(15, 20, 95)"/>
    <!-- Pink petal -->
    <ellipse cx="-55" cy="-15" rx="50" ry="32" fill="#b86090" transform="rotate(-10, -55, -15)"/>
    <!-- Gold upper -->
    <path d="M -20 -60 C 18 -92, 72 -80, 75 -42 C 80 -10, 55 8, 24 -5 C -8 -18, -42 -40, -20 -60 Z" fill="#b08818"/>
    
    <!-- Multicolor rects -->
    <rect x="36" y="-68" width="18" height="16" fill="#c03030"/>
    <rect x="54" y="-68" width="16" height="16" fill="#2a7a28"/>
    <rect x="70" y="-68" width="14" height="16" fill="#2255c0"/>
    <rect x="36" y="-52" width="16" height="14" fill="#2255c0"/>
    <rect x="52" y="-52" width="18" height="14" fill="#c0a028"/>
    <rect x="70" y="-52" width="14" height="14" fill="#b86090"/>
    
    <!-- Olive diagonal -->
    <path d="M 2 -34 L 40 -60 L 52 -48 L 18 -22 Z" fill="#7a6828"/>
    <!-- Green diagonal -->
    <path d="M -14 -24 L 14 -44 L 24 -37 L 2 -16 Z" fill="#286838"/>
    
    <!-- Yellow zigzag -->
    <polyline points="-20,-48 -4,-68 14,-48 30,-68 44,-48" stroke="#c0a028" stroke-width="5" fill="none"/>
    <!-- Purple zigzag -->
    <polyline points="-18,-40 0,-58 18,-40 34,-58 48,-40" stroke="#5828a0" stroke-width="4" fill="none"/>
    
    <!-- Lavender wave stripes -->
    <path d="M -65 22 C -48 16, -32 28, -14 22" stroke="#b088c8" stroke-width="4" fill="none"/>
    <path d="M -65 29 C -48 23, -32 35, -14 29" stroke="#d0a8d8" stroke-width="3.5" fill="none"/>
    <path d="M -65 36 C -48 30, -32 42, -14 36" stroke="#8868a8" stroke-width="3.5" fill="none"/>
    
    <!-- Horizontal stripes -->
    <line x1="-62" y1="46" x2="-6" y2="46" stroke="#e0e0e0" stroke-width="2.8"/>
    <line x1="-62" y1="51" x2="-6" y2="51" stroke="#c04868" stroke-width="2.8"/>
    <line x1="-62" y1="56" x2="-6" y2="56" stroke="#2255aa" stroke-width="2.8"/>
    <line x1="-62" y1="61" x2="-6" y2="61" stroke="#1a7878" stroke-width="2.8"/>
    
    <!-- Checkered -->
    <g transform="translate(-12, 20)">
      <rect x="0" y="0" width="10" height="10" fill="#e0e0e0"/>
      <rect x="10" y="0" width="10" height="10" fill="#181818"/>
      <rect x="20" y="0" width="10" height="10" fill="#e0e0e0"/>
      <rect x="0" y="10" width="10" height="10" fill="#181818"/>
      <rect x="10" y="10" width="10" height="10" fill="#e0e0e0"/>
      <rect x="20" y="10" width="10" height="10" fill="#181818"/>
      <rect x="0" y="20" width="10" height="10" fill="#e0e0e0"/>
      <rect x="10" y="20" width="10" height="10" fill="#181818"/>
      <rect x="20" y="20" width="10" height="10" fill="#e0e0e0"/>
    </g>
    
    <!-- Spotted area -->
    <circle cx="-34" cy="80" r="14" fill="#b86090"/>
    <circle cx="-34" cy="80" r="8" fill="#682058"/>
    <circle cx="-34" cy="80" r="4" fill="#b86090"/>
    <circle cx="-16" cy="92" r="9" fill="#b86090"/>
    <circle cx="-16" cy="92" r="5" fill="#682058"/>
    
    <!-- Blue diagonal -->
    <path d="M -30 8 L 8 -16 L 16 -6 L -22 18 Z" fill="#2858c0"/>
    
    <!-- Yellow accent -->
    <circle cx="30" cy="8" r="6" fill="#c0a028"/>
    
    <!-- Green crescent -->
    <path d="M -80 -30 C -74 -45, -58 -50, -50 -40 C -58 -34, -70 -32, -80 -30 Z" fill="#288858"/>
    
    <!-- Hanging threads -->
    <line x1="-40" y1="112" x2="-58" y2="162" stroke="#707070" stroke-width="1.2"/>
    <line x1="-34" y1="114" x2="-48" y2="162" stroke="#707070" stroke-width="1.2"/>
    <line x1="-28" y1="112" x2="-42" y2="155" stroke="#707070" stroke-width="1"/>
    <line x1="-22" y1="110" x2="-36" y2="152" stroke="#707070" stroke-width="0.8"/>
    
    <!-- Bottom forms -->
    <polygon points="-65,105 -80,90 -85,110" fill="#b86090" opacity="0.55"/>
    <polygon points="-70,98 -55,82 -50,102" fill="#2a7878" opacity="0.45"/>
  </g>
  
  <!-- Green half-circle above cluster -->
  <circle cx="118" cy="168" r="19" fill="#288858"/>
  <path d="M 99 168 A 19 19 0 0 1 137 168" fill="#c8d0b8"/>
  <circle cx="118" cy="168" r="7" fill="#1a5838"/>
  
  <!-- Far left half-circle -->
  <g transform="translate(55, 188)">
    <circle cx="0" cy="0" r="15" fill="#2a7868"/>
    <path d="M -15 0 A 15 15 0 0 1 15 0" fill="#b86090"/>
    <circle cx="0" cy="0" r="6" fill="#c0a028"/>
  </g>
  
  <!-- ============================================ -->
  <!-- LOWER-LEFT RECTANGLE -->
  <!-- ============================================ -->
  <rect x="268" y="525" width="125" height="200" fill="#181818" rx="2"/>
  <rect x="283" y="545" width="96" height="140" fill="#28b0a0" rx="1"/>
  <rect x="292" y="556" width="78" height="118" fill="#38c8b8" opacity="0.48" rx="1"/>
  <rect x="252" y="595" width="14" height="142" fill="#181818"/>
  
  <!-- Circles below -->
  <circle cx="300" cy="738" r="6" fill="#b870a0" opacity="0.5"/>
  <circle cx="316" cy="740" r="5" fill="#c0a028" opacity="0.5"/>
  <circle cx="330" cy="738" r="4.5" fill="#28b0a0" opacity="0.45"/>
  <circle cx="344" cy="735" r="5.5" fill="#b870a0" opacity="0.4"/>
  <circle cx="358" cy="737" r="3.5" fill="#28b0a0" opacity="0.4"/>
  
  <!-- Purple rects -->
  <rect x="265" y="725" width="22" height="10" fill="#6838a0" opacity="0.55"/>
  <rect x="292" y="727" width="16" height="8" fill="#8a58c0" opacity="0.45"/>
  
  <!-- Geometric forms around rect -->
  <polygon points="228,585 255,562 262,595 242,600" fill="#1a7878" opacity="0.45"/>
  <polygon points="218,605 245,590 250,618 228,620" fill="#b870a0" opacity="0.38"/>
  <polygon points="208,580 228,558 236,582" fill="#2858a0" opacity="0.38"/>
  
  <!-- ============================================ -->
  <!-- SCATTERED CENTER ELEMENTS -->
  <!-- ============================================ -->
  
  <!-- Crosses -->
  <g stroke="#c0a028" stroke-width="2.5">
    <line x1="298" y1="425" x2="312" y2="425"/><line x1="305" y1="418" x2="305" y2="432"/>
  </g>
  <g stroke="#c0a028" stroke-width="2">
    <line x1="235" y1="385" x2="247" y2="385"/><line x1="241" y1="379" x2="241" y2="391"/>
  </g>
  <g stroke="#e0e0e0" stroke-width="2.5">
    <line x1="350" y1="480" x2="364" y2="480"/><line x1="357" y1="473" x2="357" y2="487"/>
  </g>
  
  <!-- Colored vertical bars -->
  <g transform="translate(370, 505)">
    <rect x="0" y="0" width="7" height="18" fill="#2858a0"/>
    <rect x="8" y="-1" width="6" height="20" fill="#c03030"/>
    <rect x="15" y="1" width="5" height="16" fill="#c0a028"/>
    <rect x="21" y="0" width="5" height="14" fill="#288858"/>
    <rect x="27" y="2" width="4" height="12" fill="#2255c0"/>
  </g>
  
  <!-- Yellow triangle -->
  <polygon points="445,500 458,482 465,505" fill="#c0a028"/>
  
  <!-- Crescents -->
  <path d="M 415,515 C 425,500 440,500 450,515" stroke="#288858" stroke-width="2.5" fill="none"/>
  <path d="M 425,525 C 433,515 445,515 453,525" stroke="#2a7070" stroke-width="2" fill="none"/>
  
  <!-- Row of ellipses -->
  <ellipse cx="492" cy="545" rx="12" ry="7" fill="none" stroke="#c0a028" stroke-width="2"/>
  <ellipse cx="522" cy="548" rx="11" ry="6.5" fill="none" stroke="#c0a028" stroke-width="1.8"/>
  <ellipse cx="550" cy="550" rx="11" ry="6" fill="none" stroke="#e0d8c0" stroke-width="1.5"/>
  <ellipse cx="576" cy="553" rx="10" ry="6" fill="none" stroke="#c0a028" stroke-width="1.8"/>
  <ellipse cx="600" cy="551" rx="9" ry="5.5" fill="none" stroke="#e0d8c0" stroke-width="1.2"/>
  <ellipse cx="622" cy="554" rx="9" ry="5" fill="none" stroke="#c0a028" stroke-width="1.5"/>
  <ellipse cx="642" cy="552" rx="8" ry="5" fill="none" stroke="#e0e0e0" stroke-width="1"/>
  <!-- Dashes -->
  <line x1="505" y1="545" x2="512" y2="547" stroke="#e0e0e0" stroke-width="2"/>
  <line x1="535" y1="549" x2="542" y2="550" stroke="#e0e0e0" stroke-width="1.5"/>
  
  <!-- ============================================ -->
  <!-- SCALLOPED WAVES (right of center) -->
  <!-- ============================================ -->
  <g opacity="0.75">
    <path d="M 695 595 C 705 580, 717 580, 727 595 C 737 580, 749 580, 759 595 C 769 580, 781 580, 791 595 C 801 580, 813 580, 823 595 C 833 580, 845 580, 855 595 C 865 580, 877 580, 887 595 C 897 580, 909 580, 919 595 C 929 580, 941 580, 951 595" 
          stroke="#1a5852" stroke-width="3" fill="none"/>
    <path d="M 710 607 C 720 595, 730 595, 740 607 C 750 595, 760 595, 770 607 C 780 595, 790 595, 800 607 C 810 595, 820 595, 830 607 C 840 595, 850 595, 860 607 C 870 595, 880 595, 890 607 C 900 595, 910 595, 920 607" 
          stroke="#1a5852" stroke-width="2.5" fill="none"/>
    <path d="M 723 617 C 731 607, 741 607, 749 617 C 757 607, 767 607, 775 617 C 783 607, 793 607, 801 617 C 809 607, 819 607, 827 617 C 835 607, 845 607, 853 617 C 861 607, 871 607, 879 617 C 887 607, 897 607, 905 617" 
          stroke="#1a5852" stroke-width="2" fill="none"/>
  </g>
  
  <!-- ============================================ -->
  <!-- LOWER SWEEPING ARCS - thick segmented curves -->
  <!-- ============================================ -->
  <!-- Large outer arc -->
  <path d="M 440 760 C 525 648, 720 580, 930 668" 
        stroke="#2070a0" stroke-width="16" fill="none" stroke-linecap="round"/>
  <path d="M 458 765 C 540 658, 728 598, 930 680" 
        stroke="#1a4868" stroke-width="10" fill="none" stroke-linecap="round"/>
  
  <!-- Colored tips left -->
  <circle cx="438" cy="762" r="7" fill="#c06630"/>
  <rect x="424" y="758" width="12" height="4" fill="#288858"/>
  <rect x="427" y="766" width="9" height="3" fill="#b870a0"/>
  <!-- Colored tips right -->
  <circle cx="932" cy="670" r="6" fill="#c06630"/>
  <rect x="928" y="662" width="9" height="4" fill="#c0a028"/>
  
  <!-- Purple arc -->
  <path d="M 548 752 C 615 695, 740 675, 855 728" 
        stroke="#8a60a8" stroke-width="6" fill="none"/>
  
  <!-- Pink arc -->
  <path d="M 600 738 C 645 708, 720 698, 790 728" 
        stroke="#b870a0" stroke-width="3.5" fill="none" opacity="0.55"/>
  
  <!-- Blade/sickle shapes -->
  <path d="M 548 690 C 595 625, 680 608, 735 648" 
        stroke="#1a4868" stroke-width="10" fill="none" stroke-linecap="round"/>
  <path d="M 555 695 C 600 635, 682 620, 730 655" 
        stroke="#2878a0" stroke-width="6" fill="none" stroke-linecap="round"/>
  
  <!-- Tips -->
  <rect x="538" y="685" width="14" height="5" fill="#288858"/>
  <rect x="541" y="693" width="10" height="4" fill="#c0a028"/>
  
  <!-- Green cross near arcs -->
  <g stroke="#288858" stroke-width="2">
    <line x1="665" y1="640" x2="675" y2="640"/><line x1="670" y1="635" x2="670" y2="645"/>
  </g>
  
  <!-- Green grid -->
  <g transform="translate(725, 630)">
    <rect x="0" y="0" width="16" height="16" fill="#286828" opacity="0.5" rx="1"/>
    <line x1="0" y1="8" x2="16" y2="8" stroke="#1a4818" stroke-width="0.8"/>
    <line x1="8" y1="0" x2="8" y2="16" stroke="#1a4818" stroke-width="0.8"/>
  </g>
  
  <!-- Pink circle -->
  <circle cx="690" cy="570" r="9" fill="#c07088"/>
  <circle cx="690" cy="570" r="4" fill="#c03050"/>
  
  <!-- ============================================ -->
  <!-- LOWER LEFT ELEMENTS -->
  <!-- ============================================ -->
  <rect x="220" y="705" width="38" height="6" fill="#c03060"/>
  <rect x="228" y="717" width="24" height="4.5" fill="#c03060" opacity="0.68"/>
  <polygon points="242,840 264,788 286,840" fill="#c06630"/>
  <ellipse cx="335" cy="690" rx="14" ry="7" fill="#c0a028"/>
  <line x1="275" y1="755" x2="415" y2="753" stroke="#2878a0" stroke-width="2.2"/>
  <line x1="482" y1="745" x2="493" y2="808" stroke="#2858a0" stroke-width="3.8"/>
  
  <!-- Lower triangles -->
  <polygon points="612,772 622,758 630,774" fill="#8a58a8" opacity="0.48"/>
  <polygon points="538,822 548,808 556,824" fill="#c03060" opacity="0.38"/>
  <polygon points="752,752 795,718 812,756" fill="#1a4868"/>
  
  <!-- ============================================ -->
  <!-- ALL THE SCATTERED SMALL ELEMENTS -->
  <!-- ============================================ -->
  <circle cx="425" cy="410" r="3.5" fill="#288858"/>
  <circle cx="455" cy="435" r="2.5" fill="#c03060"/>
  <circle cx="482" cy="165" r="4" fill="#e0e0e0" opacity="0.6"/>
  <circle cx="445" cy="180" r="3" fill="#288858"/>
  <circle cx="632" cy="380" r="3.5" fill="#c06630"/>
  <circle cx="330" cy="370" r="3" fill="#e0e0e0" opacity="0.5"/>
  <circle cx="692" cy="175" r="3.5" fill="#c06630"/>
  <circle cx="775" cy="490" r="2.5" fill="#c07088" opacity="0.5"/>
  <circle cx="815" cy="520" r="2" fill="#e0e0e0" opacity="0.4"/>
  <circle cx="855" cy="500" r="2.5" fill="#2a7070"/>
  <circle cx="488" cy="490" r="2.5" fill="#c03060"/>
  
  <!-- Right scattered -->
  <circle cx="1290" cy="645" r="5" fill="#c06630"/>
  <circle cx="1310" cy="680" r="3.5" fill="#288858"/>
  
  <!-- Bottom right multicolored -->
  <g transform="translate(1248, 752)">
    <ellipse cx="0" cy="0" rx="14" ry="9" fill="#c06630"/>
    <ellipse cx="0" cy="0" rx="7" ry="5" fill="#2858a0"/>
    <circle cx="0" cy="-7" r="3.5" fill="#c0a028"/>
  </g>
  
  <!-- Curving far lower right -->
  <path d="M 1205,808 C 1220,795 1238,802 1232,816" stroke="#8a58a8" stroke-width="2.5" fill="none"/>
  <path d="M 1268,785 C 1280,775 1292,782 1288,795" stroke="#2a7070" stroke-width="2" fill="none"/>
  
  <!-- Lower right dart -->
  <g transform="translate(1060, 780) rotate(22)">
    <polygon points="0,0 -16,34 0,98 16,34" fill="#2878a0"/>
    <polygon points="0,0 -9,28 0,78 9,28" fill="#4898b8"/>
    <polygon points="0,0 -4,16 0,45 4,16" fill="#a8d0e0"/>
    <circle cx="0" cy="45" r="4.5" fill="#c06630"/>
    <circle cx="-9" cy="60" r="3.5" fill="#b870a0"/>
    <rect x="-7" y="68" width="14" height="9" fill="#288858" opacity="0.55"/>
  </g>
  
  <!-- Lower right small form -->
  <g transform="translate(1188, 692)">
    <circle cx="0" cy="0" r="8" fill="#c06630"/>
    <polygon points="-5,-5 0,-14 5,-5" fill="#2858a0"/>
  </g>
  
  <!-- Upper dots -->
  <circle cx="422" cy="98" r="2" fill="#288858"/>
  <circle cx="458" cy="82" r="2" fill="#c06630"/>
  <circle cx="498" cy="92" r="2.5" fill="#e0e0e0"/>
  <circle cx="568" cy="88" r="3" fill="#2858a0"/>
  <rect x="542" y="90" width="6" height="6" fill="#c03030" transform="rotate(15, 545, 93)"/>
  <circle cx="742" cy="85" r="2.5" fill="#e0e0e0" opacity="0.6"/>
  <circle cx="772" cy="100" r="2" fill="#b870a0"/>
  <circle cx="812" cy="85" r="2" fill="#288858" opacity="0.5"/>
  
  <!-- White dashes -->
  <line x1="498" y1="522" x2="512" y2="524" stroke="#e0e0e0" stroke-width="2"/>
  <line x1="532" y1="532" x2="542" y2="533" stroke="#e0e0e0" stroke-width="1.5"/>
  
  <!-- Faint marks -->
  <circle cx="1042" cy="518" r="2.5" fill="#b870a0" opacity="0.38"/>
  <circle cx="1072" cy="548" r="2.5" fill="#2a7070" opacity="0.38"/>
  
  <!-- Lower purple forms -->
  <polygon points="822,825 832,812 842,828" fill="#6838a0" opacity="0.38"/>
  <polygon points="962,815 972,802 982,818" fill="#c03060" opacity="0.28"/>
  
  <line x1="422" y1="765" x2="442" y2="763" stroke="#2858a0" stroke-width="2.2"/>
  
  <polygon points="672,868 682,853 692,868" fill="#2a7070" opacity="0.35"/>
  
  <!-- Final scattered -->
  <circle cx="375" cy="322" r="2" fill="#c03060" opacity="0.4"/>
  <circle cx="655" cy="462" r="2" fill="#288858" opacity="0.4"/>
  <circle cx="725" cy="525" r="2.5" fill="#c0a028" opacity="0.4"/>
  <circle cx="805" cy="445" r="2" fill="#2858a0" opacity="0.4"/>
  <circle cx="345" cy="495" r="2" fill="#e0e0e0" opacity="0.3"/>
</svg>
