<svg xmlns="http://www.w3.org/2000/svg" version="1.1" xmlns:xlink="http://www.w3.org/1999/xlink" xmlns:svgjs="http://svgjs.dev/svgjs" 
viewBox="0 0 640 640" width="640" height="640">
<g stroke-width="2" stroke="hsla(0, 0%, 70%, 0.5)" fill="none">
<desc>A simple 16x16 grid, each square 40x40 pixels, created as the intersection of 
16 horizontal and 15 vertical lines, adjusted to the shape of Grouchy.</desc>
<!-- Horizontal lines -->
<line x1="160" x2="560" y1="0" y2="0" />
<line x1="80" x2="600" y1="40" y2="40" />
<line x1="0" x2="640" y1="80" y2="80"/>
<line x1="0" x2="640" y1="120" y2="120"/>
<line x1="0" x2="640" y1="160" y2="160"/>
<line x1="0" x2="640" y1="200" y2="200"/>
<line x1="0" x2="640" y1="240" y2="240"/>
<line x1="0" x2="640" y1="280" y2="280"/>
<line x1="0" x2="640" y1="320" y2="320"/>
<line x1="0" x2="640" y1="360" y2="360"/>
<line x1="0" x2="640" y1="400" y2="400"/>
<line x1="40" x2="640" y1="440" y2="440"/>
<line x1="40" x2="640" y1="480" y2="480"/>
<line x1="40" x2="600" y1="520" y2="520"/>
<line x1="80" x2="640" y1="560" y2="560"/>
<line x1="80" x2="640" y1="600" y2="600"/>
<!-- Vertical lines -->
<line x1="40" x2="40" y1="80" y2="520"/>
<line x1="80" x2="80" y1="80" y2="560"/>
<line x1="120" x2="120" y1="40" y2="640"/>
<line x1="160" x2="160" y1="40" y2="640"/>
<line x1="200" x2="200" y1="0" y2="640"/>
<line x1="240" x2="240" y1="0" y2="640"/>
<line x1="280" x2="280" y1="0" y2="640"/>
<line x1="320" x2="320" y1="0" y2="640"/>
<line x1="360" x2="360" y1="0" y2="640"/>
<line x1="400" x2="400" y1="0" y2="640"/>
<line x1="440" x2="440" y1="0" y2="640"/>
<line x1="480" x2="480" y1="0" y2="640"/>
<line x1="520" x2="520" y1="0" y2="640"/>
<line x1="560" x2="560" y1="40" y2="640"/>
<line x1="600" x2="600" y1="80" y2="640"/>
</g></svg>